<svg width="50" height="50" viewBox="0 0 50 50" fill="none" xmlns="http://www.w3.org/2000/svg">
<path fill-rule="evenodd" clip-rule="evenodd" d="M24.4997 42.3248L39.9097 32.3923V6.5173H9.07473V32.3923L24.4997 42.3248ZM4.90723 34.6023V2.35229H44.0747V34.6023L24.4922 47.3523L4.90723 34.6023ZM33.2899 13.9178L33.6499 14.3078C34.7135 15.4968 35.3016 17.0362 35.3016 18.6316C35.3016 20.2269 34.7135 21.7663 33.6499 22.9553L24.4999 32.8703L15.3399 22.9553C14.2793 21.7648 13.6932 20.226 13.6932 18.6316C13.6932 17.0371 14.2793 15.4983 15.3399 14.3078L15.7024 13.9178C16.2283 13.3371 16.8698 12.8727 17.5858 12.5546C18.3018 12.2364 19.0764 12.0714 19.8599 12.0703C20.644 12.0711 21.4193 12.2361 22.1358 12.5548C22.8523 12.8734 23.4941 13.3386 24.0199 13.9203L24.4999 14.4403L24.9749 13.9203C25.5003 13.3388 26.1417 12.8737 26.8577 12.5551C27.5738 12.2364 28.3486 12.0713 29.1324 12.0703C29.9159 12.0714 30.6904 12.2364 31.4064 12.5546C32.1224 12.8727 32.7639 13.3371 33.2899 13.9178ZM24.4999 27.4428L30.4374 21.0003C30.9061 20.4656 31.1652 19.7791 31.1666 19.068C31.168 18.3569 30.9116 17.6694 30.4449 17.1328L30.1349 16.7978C29.9289 16.5638 29.6754 16.3764 29.3913 16.248C29.1073 16.1197 28.7991 16.0532 28.4874 16.0532C28.1756 16.0532 27.8675 16.1197 27.5834 16.248C27.2993 16.3764 27.0459 16.5638 26.8399 16.7978L24.4999 19.3328L22.1524 16.7928C21.9466 16.5589 21.6934 16.3715 21.4095 16.2431C21.1256 16.1148 20.8177 16.0484 20.5061 16.0484C20.1946 16.0484 19.8866 16.1148 19.6027 16.2431C19.3189 16.3715 19.0656 16.5589 18.8599 16.7928L18.5474 17.1278C18.0788 17.664 17.8205 18.352 17.8205 19.0641C17.8205 19.7762 18.0788 20.4641 18.5474 21.0003L24.4999 27.4428Z" fill="#282B3E"/>
</svg>
